<svg width="720" height="240" viewBox="0 0 720 240" fill="none" xmlns="http://www.w3.org/2000/svg" role="img" aria-label="AJIZOUR full logo">
  <defs>
    <linearGradient id="sea" x1="74" y1="46" x2="210" y2="190" gradientUnits="userSpaceOnUse">
      <stop stop-color="#006D77"/>
      <stop offset="1" stop-color="#0B5CAD"/>
    </linearGradient>
    <linearGradient id="sun" x1="120" y1="56" x2="184" y2="132" gradientUnits="userSpaceOnUse">
      <stop stop-color="#FFD166"/>
      <stop offset="1" stop-color="#F4A261"/>
    </linearGradient>
  </defs>
  <rect x="28" y="28" width="188" height="188" rx="42" fill="#F8FBFC"/>
  <path d="M64 154C93 134 123 174 154 151C175 136 194 142 207 154" stroke="url(#sea)" stroke-width="14" stroke-linecap="round"/>
  <path d="M61 180C92 158 125 198 160 174C180 160 196 165 208 176" stroke="#2A9D8F" stroke-width="12" stroke-linecap="round"/>
  <path d="M92 128L122 76L153 128H92Z" fill="url(#sea)"/>
  <path d="M122 76V50M108 62L122 50L137 62" stroke="#006D77" stroke-width="9" stroke-linecap="round" stroke-linejoin="round"/>
  <path d="M142 101C142 79 160 62 181 62C203 62 220 79 220 101" stroke="url(#sun)" stroke-width="11" stroke-linecap="round"/>
  <path d="M158 115H221M171 132H211" stroke="#E76F51" stroke-width="9" stroke-linecap="round"/>
  <text x="250" y="118" font-family="Inter, Plus Jakarta Sans, Arial, sans-serif" font-size="72" font-weight="800" letter-spacing="0" fill="#123047">AJIZOUR</text>
  <text x="254" y="160" font-family="Inter, Plus Jakarta Sans, Arial, sans-serif" font-size="24" font-weight="700" letter-spacing="0" fill="#006D77">Algerian coastal tourism</text>
</svg>
